<svg width="242" height="55" xmlns="http://www.w3.org/2000/svg" xmlns:xlink="http://www.w3.org/1999/xlink"><defs><path id="a" d="M.163.435h26.62v23.496H.163z"/><path id="c" d="M0 .068h15.454V38H0z"/><path id="e" d="M.746.069H16.2V38H.745z"/></defs><g fill="none" fill-rule="evenodd"><path d="M68.37 27.583c.7.167 1.596.235 2.89.235 4.123 0 6.852-1.868 6.852-5.232 0-3.032-2.334-4.65-6.28-4.65-1.728 0-2.881.126-3.462.244v9.403zM60.793 12.92c2.405-.374 5.84-.7 10.974-.7 4.737 0 8.084.98 10.27 2.654 2.124 1.573 3.652 4.29 3.652 7.613 0 3.06-1.015 5.835-3.026 7.619-2.663 2.417-6.548 3.542-11.39 3.542-1.15 0-2.165-.086-2.903-.214v11.429h-7.577V12.92zM90.4 10.492h7.653V24.32h.096c.834-1.1 1.856-1.924 3.137-2.571 1.147-.61 2.593-.958 4.01-.958 4.783 0 8.977 3.08 8.977 10.54v13.532h-7.652V32.412c0-3.367-1.277-5.506-4.258-5.506-2.248 0-3.541 1.456-4.077 2.698-.212.455-.233 1.014-.233 1.54v13.719H90.4V10.492zM135.863 30.297c.01-1.341-.771-4.558-4.58-4.558-3.434 0-4.821 2.757-5.074 4.558h9.654zm-9.571 5.203c.264 2.82 3.552 4.289 7.17 4.289 2.698 0 4.882-.314 7.128-1.061l1.04 5.09c-2.708 1.103-5.792 1.622-9.203 1.622-8.477 0-13.4-4.773-13.4-12.09 0-5.325 3.593-12.56 12.658-12.56 8.469 0 11.32 6.564 11.32 11.945 0 1.136-.152 2.268-.286 2.765h-16.427zM147.616 29.017c0-3.046-.086-5.589-.191-7.65h6.41l.305 3.328h.172c.923-1.404 3.058-3.905 7.585-3.905 3.195 0 5.786 1.674 6.87 4.3h.096c.976-1.355 2.066-2.336 3.272-3.028 1.377-.834 2.916-1.272 4.849-1.272 4.583 0 8.522 3.122 8.522 10.602v13.471h-7.387v-12.4c0-3.652-1.36-5.568-3.882-5.568-1.891 0-3.176 1.282-3.691 2.688-.202.586-.291 1.354-.291 1.915v13.365h-7.387V32.208c0-3.377-1.351-5.313-3.801-5.313-2.18 0-3.343 1.686-3.783 2.792-.24.624-.28 1.29-.28 1.878v13.298h-7.388V29.017zM207.094 30.297c.01-1.341-.77-4.558-4.579-4.558-3.435 0-4.822 2.757-5.075 4.558h9.654zm-9.57 5.203c.263 2.82 3.551 4.289 7.17 4.289 2.697 0 4.881-.314 7.127-1.061l1.041 5.09c-2.709 1.103-5.793 1.622-9.204 1.622-8.477 0-13.399-4.773-13.399-12.09 0-5.325 3.592-12.56 12.657-12.56 8.47 0 11.32 6.564 11.32 11.945 0 1.136-.152 2.268-.286 2.765h-16.427z" fill="#003398" fill-rule="nonzero"/><g transform="translate(215 20.931)"><mask id="b" fill="#fff"><use xlink:href="#a"/></mask><path d="M8.992.435l2.6 3.849a76.03 76.03 0 012.17 3.357h.134c.696-1.306 1.353-2.394 2.03-3.51L18.223.434h8.47l-8.53 11.072 8.622 12.425h-8.756l-2.601-4.153a41.802 41.802 0 01-2.053-3.573h-.134a85.157 85.157 0 01-2.043 3.573L8.729 23.93H.163L9.03 11.857.398.437h8.594z" fill="#003398" fill-rule="nonzero" mask="url(#b)"/></g><g transform="translate(0 16.931)"><mask id="d" fill="#fff"><use xlink:href="#c"/></mask><path d="M0 .068v25.253c0 5.28 9.3 12.68 15.454 12.68V12.747C15.454 7.466 6.154.068 0 .068" fill="#13DAFD" fill-rule="nonzero" mask="url(#d)"/></g><g transform="translate(22 .931)"><mask id="f" fill="#fff"><use xlink:href="#e"/></mask><path d="M.746.068v25.253c0 5.28 9.3 12.68 15.454 12.68V12.747C16.2 7.466 6.899.068.745.068" fill="#003398" fill-rule="nonzero" mask="url(#f)"/></g></g></svg>